<svg width="400" height="79" viewBox="0 0 400 79" fill="none" xmlns="http://www.w3.org/2000/svg">
<path d="M79.3616 32.4271V25.5327C79.3616 22.9304 80.0713 20.9364 81.4908 19.5507C82.944 18.1651 84.6845 17.4723 86.7123 17.4723C88.7739 17.4723 90.3623 17.8778 91.4776 18.6889C92.6266 19.5 93.2012 20.4632 93.2012 21.5785C93.2012 22.2544 92.9308 22.7107 92.3901 22.9473C91.0382 21.3926 89.4498 20.6153 87.6248 20.6153C86.4081 20.6153 85.428 21.004 84.6845 21.7813C83.9748 22.5586 83.6199 23.7415 83.6199 25.3299V32.4271H91.579C91.7817 32.6637 91.8831 32.9678 91.8831 33.3396C91.8831 34.8942 89.3653 35.6715 84.3297 35.6715H83.6199V62.4382C83.6199 64.466 83.1806 65.9868 82.3019 67.0007C81.457 68.0484 80.3755 68.5722 79.0574 68.5722C77.2325 68.5722 75.9482 67.7104 75.2047 65.9868C76.7593 65.9868 77.8408 65.6319 78.4491 64.9222C79.0574 64.2463 79.3616 63.0972 79.3616 61.475V35.6209C76.3875 35.4519 74.9005 34.7928 74.9005 33.6438C74.9005 33.1706 75.1202 32.6806 75.5595 32.1736C76.3369 32.3426 77.469 32.4271 78.9561 32.4271H79.3616ZM107.326 40.3861C108.712 40.2847 109.405 39.4905 109.405 38.0035C109.405 36.4827 108.965 35.2322 108.087 34.2521C107.242 33.2382 106.042 32.7313 104.487 32.7313C102.933 32.7313 101.513 33.4748 100.229 34.9618C98.9448 36.4489 98.1506 38.5104 97.8465 41.1465L107.326 40.3861ZM97.7451 43.3264C97.7451 46.6384 98.4548 49.0887 99.8742 50.6771C101.327 52.2655 103.389 53.0597 106.059 53.0597C108.729 53.0597 110.943 52.181 112.7 50.4236C113.207 50.694 113.46 51.1502 113.46 51.7924C113.46 52.9076 112.649 53.9722 111.027 54.9861C109.405 55.9662 107.478 56.4562 105.248 56.4562C101.767 56.4562 98.911 55.3579 96.6805 53.1611C94.4499 50.9644 93.3347 47.8889 93.3347 43.9347C93.3347 39.9468 94.5344 36.6009 96.934 33.8972C99.3673 31.1597 102.155 29.791 105.299 29.791C107.799 29.791 109.827 30.6528 111.382 32.3764C112.97 34.1 113.764 36.0602 113.764 38.257C113.764 39.8454 113.325 41.0283 112.446 41.8056C111.602 42.5491 110.216 42.9546 108.29 43.0222L97.7451 43.3264ZM124.474 20.9702V52.8569C124.474 53.837 124.897 54.4961 125.741 54.834C125.032 55.9155 124.153 56.4562 123.105 56.4562C121.213 56.4562 120.266 55.2734 120.266 52.9076V21.0716C120.266 20.0915 119.844 19.4155 118.999 19.0438C119.574 17.9961 120.452 17.4723 121.635 17.4723C123.528 17.4723 124.474 18.6382 124.474 20.9702ZM137.94 20.9702V52.8569C137.94 53.837 138.362 54.4961 139.207 54.834C138.497 55.9155 137.619 56.4562 136.571 56.4562C134.678 56.4562 133.732 55.2734 133.732 52.9076V21.0716C133.732 20.0915 133.31 19.4155 132.465 19.0438C133.039 17.9961 133.918 17.4723 135.101 17.4723C136.993 17.4723 137.94 18.6382 137.94 20.9702ZM159.06 40.3861C160.446 40.2847 161.139 39.4905 161.139 38.0035C161.139 36.4827 160.699 35.2322 159.821 34.2521C158.976 33.2382 157.776 32.7313 156.221 32.7313C154.667 32.7313 153.247 33.4748 151.963 34.9618C150.679 36.4489 149.885 38.5104 149.58 41.1465L159.06 40.3861ZM149.479 43.3264C149.479 46.6384 150.189 49.0887 151.608 50.6771C153.061 52.2655 155.123 53.0597 157.793 53.0597C160.463 53.0597 162.677 52.181 164.434 50.4236C164.941 50.694 165.194 51.1502 165.194 51.7924C165.194 52.9076 164.383 53.9722 162.761 54.9861C161.139 55.9662 159.212 56.4562 156.982 56.4562C153.501 56.4562 150.645 55.3579 148.415 53.1611C146.184 50.9644 145.069 47.8889 145.069 43.9347C145.069 39.9468 146.268 36.6009 148.668 33.8972C151.101 31.1597 153.89 29.791 157.033 29.791C159.533 29.791 161.561 30.6528 163.116 32.3764C164.704 34.1 165.499 36.0602 165.499 38.257C165.499 39.8454 165.059 41.0283 164.18 41.8056C163.336 42.5491 161.95 42.9546 160.024 43.0222L149.479 43.3264ZM188.73 36.7868C188.189 37.2262 187.53 37.4459 186.753 37.4459C185.975 37.4459 185.316 37.2431 184.775 36.8375C184.978 36.4996 185.08 36.0095 185.08 35.3674C185.08 34.7253 184.691 34.1 183.914 33.4917C183.136 32.8834 181.97 32.5792 180.416 32.5792C178.861 32.5792 177.628 32.9341 176.715 33.6438C175.803 34.3197 175.346 35.1308 175.346 36.0771C175.346 37.0234 175.853 37.8852 176.867 38.6625C177.881 39.406 179.098 40.0989 180.517 40.741C181.937 41.3493 183.356 42.0083 184.775 42.7181C186.229 43.4278 187.462 44.3403 188.476 45.4556C189.49 46.537 189.997 47.7537 189.997 49.1056C189.997 51.0995 189.051 52.8232 187.158 54.2764C185.266 55.7296 182.866 56.4562 179.959 56.4562C177.053 56.4562 174.687 55.8986 172.862 54.7833C171.037 53.6681 170.125 52.2317 170.125 50.4743C170.125 49.4266 170.412 48.6155 170.987 48.041C171.595 47.4326 172.305 47.1285 173.116 47.1285C173.961 47.1285 174.62 47.4157 175.093 47.9903C174.62 48.6324 174.383 49.4097 174.383 50.3222C174.383 51.2347 174.839 52.0289 175.752 52.7049C176.698 53.347 178.05 53.6681 179.807 53.6681C181.599 53.6681 183.018 53.2963 184.066 52.5528C185.147 51.7755 185.688 50.8461 185.688 49.7646C185.688 48.6493 185.181 47.6861 184.167 46.875C183.187 46.0639 181.987 45.3711 180.568 44.7965C179.148 44.1882 177.712 43.563 176.259 42.9208C174.839 42.2449 173.623 41.4 172.609 40.3861C171.629 39.3722 171.139 38.2232 171.139 36.9389C171.139 34.9111 172.017 33.2213 173.775 31.8695C175.532 30.4838 177.678 29.791 180.213 29.791C182.781 29.791 184.978 30.2641 186.803 31.2104C188.628 32.1229 189.541 33.3396 189.541 34.8604C189.575 35.6715 189.304 36.3137 188.73 36.7868Z" fill="black"/>
<path d="M198.461 31.4132V25.0764C198.461 22.3389 199.289 20.1929 200.945 18.6382C202.634 17.0498 204.848 16.2556 207.586 16.2556C209.58 16.2556 211.168 16.7287 212.351 17.675C213.567 18.6213 214.176 19.7366 214.176 21.0209C214.176 22.3051 213.652 23.0486 212.604 23.2514C211.557 22.1023 210.424 21.5278 209.208 21.5278C207.349 21.5278 206.42 22.7783 206.42 25.2792V31.4132H212.604C212.841 31.6836 212.959 32.0384 212.959 32.4778C212.959 33.4579 212.486 34.3366 211.54 35.1139C210.627 35.8912 209.208 36.2799 207.281 36.2799H206.42V60.5625C206.42 63.638 205.744 65.9023 204.392 67.3555C203.074 68.8426 201.35 69.5861 199.221 69.5861C195.977 69.5861 193.932 68.0653 193.087 65.0236C195.182 65.0236 196.602 64.5843 197.345 63.7055C198.089 62.8268 198.461 61.3398 198.461 59.2444V36.2292C195.52 36.0264 194.05 35.1308 194.05 33.5424C194.05 32.5623 194.422 31.8188 195.165 31.3118C196.585 31.3794 197.683 31.4132 198.461 31.4132ZM228.279 32.782C225.373 32.782 223.919 35.3167 223.919 40.3861C223.919 41.1296 223.953 41.907 224.021 42.7181C224.426 49.3759 226.285 52.7049 229.597 52.7049C232.504 52.7049 233.957 50.1532 233.957 45.05C233.957 44.3403 233.923 43.563 233.856 42.7181C233.382 36.094 231.524 32.782 228.279 32.782ZM219.509 32.5285C221.909 30.129 225.052 28.9292 228.938 28.9292C232.825 28.9292 235.968 30.129 238.367 32.5285C240.767 34.8942 241.967 38.2908 241.967 42.7181C241.967 47.1454 240.75 50.5588 238.317 52.9583C235.917 55.3579 232.774 56.5576 228.888 56.5576C225.035 56.5576 221.909 55.3579 219.509 52.9583C217.11 50.5588 215.91 47.1454 215.91 42.7181C215.91 38.2908 217.11 34.8942 219.509 32.5285ZM248.372 50.525V34.6577C248.372 32.9003 247.797 31.7174 246.648 31.1091C247.933 29.6558 249.487 28.9292 251.312 28.9292C254.32 28.9292 255.976 30.5514 256.28 33.7959C257.632 30.5514 259.88 28.9292 263.023 28.9292C264.611 28.9292 265.912 29.4023 266.926 30.3486C267.974 31.2949 268.498 32.5623 268.498 34.1507C268.498 35.7391 268.092 37.0065 267.281 37.9528C266.504 38.8653 265.304 39.3215 263.682 39.3215C263.479 39.3215 263.04 39.2877 262.364 39.2202C262.499 38.6118 262.566 38.2232 262.566 38.0542C262.566 37.2093 262.313 36.5503 261.806 36.0771C261.333 35.5702 260.741 35.3167 260.032 35.3167C258.207 35.3167 256.973 36.7023 256.331 39.4736V50.7785C256.331 52.6035 256.889 53.8032 258.004 54.3778C256.72 55.831 255.165 56.5576 253.34 56.5576C250.028 56.5576 248.372 54.5468 248.372 50.525ZM298.01 34.9618V50.7785C298.01 52.6035 298.551 53.8032 299.632 54.3778C298.416 55.831 296.878 56.5576 295.019 56.5576C292.282 56.5576 290.676 55.1889 290.203 52.4514C288.48 55.1889 286.08 56.5576 283.005 56.5576C279.963 56.5576 277.597 55.7803 275.907 54.2257C274.218 52.6711 273.373 50.4067 273.373 47.4326V34.6577C273.373 32.9003 272.798 31.7174 271.649 31.1091C272.933 29.6558 274.454 28.9292 276.212 28.9292C278.003 28.9292 279.304 29.4192 280.115 30.3993C280.926 31.3794 281.332 32.9003 281.332 34.9618V46.6215C281.332 49.2238 282.65 50.525 285.286 50.525C287.55 50.525 289.139 49.2407 290.051 46.6722V34.6577C290.051 32.9003 289.477 31.7174 288.327 31.1091C289.612 29.6558 291.133 28.9292 292.89 28.9292C294.681 28.9292 295.982 29.4192 296.793 30.3993C297.605 31.3794 298.01 32.9003 298.01 34.9618ZM346.917 38.0542V50.7785C346.917 52.6035 347.458 53.8032 348.539 54.3778C347.323 55.831 345.785 56.5576 343.926 56.5576C340.614 56.5576 338.958 54.5468 338.958 50.525V39.2202C338.958 38.0035 338.654 37.0572 338.046 36.3813C337.471 35.6715 336.643 35.3167 335.562 35.3167C334.48 35.3167 333.432 35.8067 332.419 36.7868C331.405 37.7331 330.678 39.1526 330.239 41.0452V50.7785C330.239 52.6035 330.779 53.8032 331.861 54.3778C330.644 55.831 329.106 56.5576 327.248 56.5576C323.936 56.5576 322.28 54.5468 322.28 50.525V39.2202C322.28 38.0035 321.975 37.0572 321.367 36.3813C320.793 35.6715 319.965 35.3167 318.883 35.3167C317.802 35.3167 316.754 35.8236 315.74 36.8375C314.726 37.8176 314 39.2877 313.56 41.2479V50.7785C313.56 52.6035 314.118 53.8032 315.233 54.3778C313.949 55.831 312.394 56.5576 310.569 56.5576C307.257 56.5576 305.601 54.5468 305.601 50.525V34.6577C305.601 32.9003 305.027 31.7174 303.878 31.1091C305.162 29.6558 306.666 28.9292 308.389 28.9292C310.113 28.9292 311.38 29.3685 312.191 30.2472C313.003 31.0922 313.459 32.4102 313.56 34.2014C314.473 32.4778 315.723 31.1766 317.312 30.2979C318.934 29.3854 320.674 28.9292 322.533 28.9292C324.426 28.9292 326.014 29.4361 327.298 30.45C328.583 31.4639 329.444 32.934 329.884 34.8604C330.762 32.934 332.047 31.4639 333.737 30.45C335.426 29.4361 337.353 28.9292 339.516 28.9292C341.679 28.9292 343.453 29.7065 344.839 31.2611C346.224 32.8158 346.917 35.0801 346.917 38.0542ZM366.376 39.2202C366.984 39.1526 367.44 38.9667 367.745 38.6625C368.049 38.3246 368.201 37.6993 368.201 36.7868C368.201 35.8743 367.93 35.0463 367.39 34.3028C366.883 33.5255 366.173 33.1368 365.261 33.1368C364.348 33.1368 363.486 33.7114 362.675 34.8604C361.864 36.0095 361.323 37.6824 361.053 39.8792L366.376 39.2202ZM367.238 51.0319C370.043 51.0319 372.392 49.9674 374.284 47.8382C375.061 48.1762 375.45 48.8859 375.45 49.9674C375.45 51.5896 374.487 53.0935 372.561 54.4792C370.634 55.8648 368.37 56.5576 365.768 56.5576C361.746 56.5576 358.603 55.4593 356.338 53.2625C354.108 51.0657 352.993 47.9227 352.993 43.8333C352.993 39.7102 354.226 36.1954 356.693 33.2889C359.16 30.3824 362.287 28.9292 366.072 28.9292C368.978 28.9292 371.378 29.8755 373.27 31.7681C375.163 33.6269 376.109 35.756 376.109 38.1556C376.109 40.0144 375.67 41.3493 374.791 42.1604C373.912 42.9715 372.408 43.4109 370.279 43.4785L360.901 43.732C361.137 48.5986 363.25 51.0319 367.238 51.0319ZM389.806 34.3535V48.041C389.806 50.1701 390.634 51.2347 392.29 51.2347C394.115 51.2347 395.805 50.4067 397.359 48.7507C397.832 48.7507 398.221 48.9535 398.525 49.359C398.863 49.7308 399.032 50.2377 399.032 50.8799C399.032 52.2655 398.187 53.5667 396.497 54.7833C394.808 55.9662 392.712 56.5576 390.211 56.5576C387.744 56.5576 385.733 55.9324 384.179 54.6819C382.624 53.4315 381.847 51.522 381.847 48.9535V34.3535C380.63 34.3197 379.718 34.0324 379.109 33.4917C378.501 32.9172 378.197 32.2074 378.197 31.3625C378.197 30.5176 378.552 29.8417 379.261 29.3347C380.072 29.4361 380.934 29.4868 381.847 29.4868V27.966C381.847 26.2086 381.272 25.0257 380.123 24.4174C381.407 22.9642 382.928 22.2375 384.686 22.2375C386.477 22.2375 387.778 22.7276 388.589 23.7077C389.4 24.6878 389.806 26.2086 389.806 28.2702V29.4868H397.461C397.697 29.7572 397.815 30.0952 397.815 30.5007C397.815 31.5484 397.241 32.4609 396.092 33.2382C394.977 33.9817 393.016 34.3535 390.211 34.3535H389.806Z" fill="#009521"/>
<path d="M61.2555 40.1292C61.2555 52.709 50.3791 62.9052 36.9644 62.9052C23.5497 62.9052 12.6733 52.709 12.6733 40.1292V39.4612C12.6733 37.2325 12.6733 36.1182 13.4446 35.7083C15.1146 34.8247 18.7461 38.6141 18.7461 38.6141" stroke="#009521" stroke-width="4.55457" stroke-linecap="round" stroke-linejoin="round"/>
<path d="M36.9048 29.9908C34.7186 34.3146 33.1245 41.3256 35.6356 49.2415M34.3633 41.7355C21.4709 32.5657 30.328 22.0173 38.6659 16.6914C39.6709 16.0508 40.175 15.7289 40.761 15.8777C41.347 16.0295 41.6294 16.5518 42.1881 17.6024C46.8702 26.338 50.2254 40.102 34.3633 41.7355Z" stroke="#009521" stroke-width="4.55457" stroke-linecap="round" stroke-linejoin="round"/>
</svg>
